<?xml version="1.0" encoding="iso-8859-1"?>
<!-- Uploaded to: SVG Repo, www.svgrepo.com, Generator: SVG Repo Mixer Tools -->
<svg version="1.1" id="Layer_1" xmlns="http://www.w3.org/2000/svg" xmlns:xlink="http://www.w3.org/1999/xlink" 
	 viewBox="0 0 512 512" xml:space="preserve">
<polygon style="fill:#FCB641;" points="127.462,486.4 145.596,486.4 233.242,342.98 217.404,187.733 55.663,187.733 39.825,342.98 
	"/>
<rect x="42.667" y="136.533" style="fill:#EB805B;" width="187.733" height="51.2"/>
<rect x="59.733" style="fill:#E66032;" width="153.6" height="136.533"/>
<path style="fill:#FDD38D;" d="M161.067,282.667c0-10.539-6.673-19.447-16-22.921v-37.879H128v37.879
	c-9.327,3.473-16,12.382-16,22.921s6.673,19.447,16,22.921V486.4h17.067V305.587C154.394,302.106,161.067,293.197,161.067,282.667z"
	/>
<path style="fill:#E66032;" d="M327.927,486.4c73.506-32.282,127.539-107.136,127.539-196.267H438.4
	c0,110.933-88.533,196.267-190.933,196.267H25.6v17.067h460.8V486.4H327.927z"/>
<g>
	<path style="fill:#EF997C;" d="M477.867,494.933L477.867,494.933c0-9.429,7.637-17.067,17.067-17.067l0,0
		c9.429,0,17.067,7.637,17.067,17.067l0,0c0,9.429-7.637,17.067-17.067,17.067l0,0C485.504,512,477.867,504.363,477.867,494.933z"/>
	<path style="fill:#EF997C;" d="M238.933,494.933L238.933,494.933c0-9.429,7.637-17.067,17.067-17.067l0,0
		c9.429,0,17.067,7.637,17.067,17.067l0,0c0,9.429-7.637,17.067-17.067,17.067l0,0C246.571,512,238.933,504.363,238.933,494.933z"/>
	<path style="fill:#EF997C;" d="M0,494.933L0,494.933c0-9.429,7.637-17.067,17.067-17.067l0,0c9.429,0,17.067,7.637,17.067,17.067
		l0,0c0,9.429-7.637,17.067-17.067,17.067l0,0C7.637,512,0,504.363,0,494.933z"/>
</g>
<polygon style="fill:#E66032;" points="418.133,34.133 401.067,34.133 401.067,17.067 384,17.067 384,34.133 366.933,34.133 
	366.933,51.2 384,51.2 384,68.267 401.067,68.267 401.067,51.2 418.133,51.2 "/>
<rect x="426.637" y="256" transform="matrix(0.7071 -0.7071 0.7071 0.7071 -64.8969 397.9918)" style="fill:#FCB641;" width="42.666" height="42.666"/>
<path style="fill:#E66032;" d="M324.267,273.067c-14.114,0-25.6-11.486-25.6-25.6c0-14.114,11.486-25.6,25.6-25.6
	c14.114,0,25.6,11.486,25.6,25.6C349.867,261.581,338.381,273.067,324.267,273.067z M324.267,238.933
	c-4.71,0-8.533,3.831-8.533,8.533s3.823,8.533,8.533,8.533s8.533-3.831,8.533-8.533S328.977,238.933,324.267,238.933z"/>
<polygon style="fill:#EB805B;" points="162.133,68.267 145.067,68.267 128,68.267 110.933,68.267 110.933,85.333 128,85.333 
	128,136.533 145.067,136.533 145.067,85.333 162.133,85.333 "/>
</svg>